<?xml version="1.0" encoding="UTF-8"?>
<svg id="Livello_1" data-name="Livello 1" xmlns="http://www.w3.org/2000/svg" viewBox="0 0 1384.51 424.12">
  <path d="M.37,383.13c1.57-7.87,10.15-12.18,17.38-8.68,41.61,20.11,99.59,39.26,164.46,30.13,95.54-13.46,123.57-76.65,268-184,133.27-99.05,233.76-173.74,332.64-148.95,88.19,22.11,121.66,109.97,172.69,92.95,47.55-15.85,27.26-95.04,87.76-139.54,63.84-46.96,171.76-21.52,238.45,24.12,64.87,44.39,91.6,108.47,102.22,143.62,2.61,8.63-4.7,17.03-13.61,15.69-.09-.01-.18-.03-.27-.04-4.73-.71-8.62-4.09-9.97-8.68-7.51-25.4-23.87-66.23-60.57-101.83-60.58-58.76-164.44-91.55-229.87-53.8-69.06,39.84-48.28,131.13-102.79,147.14-56.36,16.56-89.18-77.91-194.24-92.1-65.5-8.85-119.77,18.83-179.77,49.42-62.44,31.84-69.85,51.23-181.33,138.67-96.3,75.53-145.48,113.57-196.32,127.31-40.74,11.01-110.53,19.76-207.26-16.83-5.64-2.13-8.92-8.03-7.73-13.93.04-.22.09-.44.13-.65Z" fill="#e0bae2" stroke-width="0"/>
</svg>